<svg version="1.1" xmlns="http://www.w3.org/2000/svg" viewBox="0 0 844.0555555555559 435.5555555555555" width="844.0555555555559" height="435.5555555555555">
  <!-- svg-source:excalidraw -->
  
  <defs>
    <style class="style-fonts">
      @font-face {
        font-family: "Virgil";
        src: url("https://excalidraw.com/Virgil.woff2");
      }
      @font-face {
        font-family: "Cascadia";
        src: url("https://excalidraw.com/Cascadia.woff2");
      }
    </style>
    
  </defs>
  <g stroke-linecap="round" transform="translate(10 76.47222222222211) rotate(0 87.11111111111109 43.88888888888886)"><path d="M21.94 0 C69.53 0.57, 114.53 0.33, 152.28 0 M21.94 0 C59.78 1.26, 98.98 1.24, 152.28 0 M152.28 0 C164.96 -0.92, 175.35 6.3, 174.22 21.94 M152.28 0 C166.72 -2.18, 176.17 8.55, 174.22 21.94 M174.22 21.94 C175.49 35.94, 175.05 50.57, 174.22 65.83 M174.22 21.94 C173.93 37.98, 175.33 53.32, 174.22 65.83 M174.22 65.83 C173.17 82.45, 166.16 86.91, 152.28 87.78 M174.22 65.83 C171.96 81.95, 165.04 89.31, 152.28 87.78 M152.28 87.78 C121.1 85.58, 86.84 85.48, 21.94 87.78 M152.28 87.78 C110.41 86.7, 70.11 87.7, 21.94 87.78 M21.94 87.78 C5.35 89.49, -1.38 80.13, 0 65.83 M21.94 87.78 C6.79 89.33, -1.6 79, 0 65.83 M0 65.83 C-1.13 54.07, 0.88 47.42, 0 21.94 M0 65.83 C-0.33 49.16, -0.34 35.12, 0 21.94 M0 21.94 C-0.97 9.29, 7.45 0.46, 21.94 0 M0 21.94 C0.96 9.52, 8.2 0.32, 21.94 0" stroke="#1e1e1e" stroke-width="2" fill="none"></path></g><g transform="translate(58.71110958523218 107.86111111111097) rotate(0 38.400001525878906 12.5)"><text x="38.400001525878906" y="0" font-family="Virgil, Segoe UI Emoji" font-size="20px" fill="#1e1e1e" text-anchor="middle" style="white-space: pre;" direction="ltr" dominant-baseline="text-before-edge">Browser</text></g><g stroke-linecap="round" transform="translate(300.7777777777778 10) rotate(0 114.33333333333331 103.33333333333331)"><path d="M32 0 C69.79 0.81, 104.56 -1.02, 196.67 0 M32 0 C87.18 0.39, 143.84 -0.33, 196.67 0 M196.67 0 C216.44 1.06, 228.39 9.28, 228.67 32 M196.67 0 C218.63 0.6, 228.2 12.75, 228.67 32 M228.67 32 C229.04 69.89, 227.2 104.38, 228.67 174.67 M228.67 32 C228.96 87.65, 229.64 141.27, 228.67 174.67 M228.67 174.67 C228.9 197.08, 216.94 206.11, 196.67 206.67 M228.67 174.67 C228.85 198.12, 219.08 206.8, 196.67 206.67 M196.67 206.67 C160.42 207.8, 122.84 205.08, 32 206.67 M196.67 206.67 C132.03 206.21, 69.62 206.37, 32 206.67 M32 206.67 C11.15 205.59, -1.94 195.11, 0 174.67 M32 206.67 C12.32 206.4, 0.99 196.81, 0 174.67 M0 174.67 C-0.37 137.62, 0.38 97.73, 0 32 M0 174.67 C0.09 129.43, 0.09 84.45, 0 32 M0 32 C1.37 10.63, 11.23 -0.61, 32 0 M0 32 C0.84 9.39, 10.93 1.56, 32 0" stroke="#1e1e1e" stroke-width="2" fill="none"></path></g><g transform="translate(364.1277775234647 15) rotate(0 50.983333587646484 12.5)"><text x="50.983333587646484" y="0" font-family="Virgil, Segoe UI Emoji" font-size="20px" fill="#1e1e1e" text-anchor="middle" style="white-space: pre;" direction="ltr" dominant-baseline="text-before-edge">Application</text></g><g stroke-linecap="round" transform="translate(668.7222222222224 68.99999999999994) rotate(0 82.66666666666674 44.99999999999997)"><path d="M22.5 0 C49.23 1.65, 70.87 -1.91, 142.83 0 M22.5 0 C61.64 -0.03, 102.68 0.63, 142.83 0 M142.83 0 C157.53 -0.82, 165.07 6.51, 165.33 22.5 M142.83 0 C156.89 0.96, 165.88 6.7, 165.33 22.5 M165.33 22.5 C163.77 39.58, 163.97 52.82, 165.33 67.5 M165.33 22.5 C164.9 33.26, 164.78 43.34, 165.33 67.5 M165.33 67.5 C164.9 83.32, 157.17 91.48, 142.83 90 M165.33 67.5 C167.35 83.29, 157.12 87.86, 142.83 90 M142.83 90 C104.89 90.82, 67.86 91.77, 22.5 90 M142.83 90 C110.43 90.66, 75.81 90.14, 22.5 90 M22.5 90 C7.83 91.46, -1.61 81.74, 0 67.5 M22.5 90 C7.36 89.58, -1.93 80.83, 0 67.5 M0 67.5 C-1.1 54.53, 0.46 41.65, 0 22.5 M0 67.5 C-0.2 52.63, 0.8 37.31, 0 22.5 M0 22.5 C0.89 9.39, 6.31 -0.24, 22.5 0 M0 22.5 C-2.2 5.44, 7.62 0.54, 22.5 0" stroke="#1e1e1e" stroke-width="2" fill="none"></path></g><g transform="translate(717.763888888889 101.49999999999994) rotate(0 33.62499999999994 12.5)"><text x="33.625" y="0" font-family="Virgil, Segoe UI Emoji" font-size="20px" fill="#1e1e1e" text-anchor="middle" style="white-space: pre;" direction="ltr" dominant-baseline="text-before-edge">PGSQL</text></g><g stroke-linecap="round" transform="translate(20.111111111111143 171.2499999999999) rotate(0 78.5 18)"><path d="M9 0 C51.82 -1.6, 89.55 -0.18, 148 0 C154.87 0.59, 155.57 2.65, 157 9 C155.23 13.91, 155.72 23.75, 157 27 C157.52 32.31, 156.18 35.12, 148 36 C93.61 32.82, 41.19 32.61, 9 36 C2.02 37.86, -1.02 34.9, 0 27 C-0.23 21.09, 0.48 18.3, 0 9 C-0.54 1, 2.25 -0.67, 9 0" stroke="none" stroke-width="0" fill="#a5d8ff"></path><path d="M9 0 C59.55 -0.52, 110.57 0.26, 148 0 M9 0 C63.82 0.13, 118.21 0.27, 148 0 M148 0 C154.01 -0.25, 156.97 2.62, 157 9 M148 0 C154.29 0.4, 156.89 3.09, 157 9 M157 9 C156.78 13.89, 156.98 19.09, 157 27 M157 9 C156.96 13.25, 157.07 17.69, 157 27 M157 27 C156.55 32.87, 154.5 36.1, 148 36 M157 27 C156.71 32.68, 153.73 35.82, 148 36 M148 36 C117.54 36.42, 87.21 36.74, 9 36 M148 36 C117.56 35.91, 86.92 35.97, 9 36 M9 36 C2.65 35.91, 0.02 33.45, 0 27 M9 36 C3.33 36.61, 0.29 33.44, 0 27 M0 27 C-0.19 21.41, -0.21 15.15, 0 9 M0 27 C-0.08 20.5, -0.11 14.41, 0 9 M0 9 C-0.05 3.06, 2.41 0.56, 9 0 M0 9 C0.04 2.91, 2.81 -0.57, 9 0" stroke="#1e1e1e" stroke-width="2" fill="none"></path></g><g transform="translate(30.377781338161924 176.7499999999999) rotate(0 68.23332977294922 12.5)"><text x="68.23332977294922" y="0" font-family="Virgil, Segoe UI Emoji" font-size="20px" fill="#1e1e1e" text-anchor="middle" style="white-space: pre;" direction="ltr" dominant-baseline="text-before-edge">HTML/CSS/JS</text></g><g stroke-linecap="round" transform="translate(21.611111111111143 212.2499999999999) rotate(0 78.5 18)"><path d="M9 0 C55.64 -0.96, 98.44 2.21, 148 0 C155.4 0.04, 158.56 1.55, 157 9 C156.72 13.91, 157.43 20.74, 157 27 C154.98 31.75, 152.89 37.06, 148 36 C113.87 33.87, 80.38 34.21, 9 36 C4.38 34.87, -0.7 32.55, 0 27 C-1.07 22.29, -0.34 19.54, 0 9 C1.57 4.49, 4.97 -0.47, 9 0" stroke="none" stroke-width="0" fill="#ffec99"></path><path d="M9 0 C47.82 -0.66, 86.29 -0.41, 148 0 M9 0 C44.34 -0.34, 80.17 -0.46, 148 0 M148 0 C154.05 -0.05, 157.02 2.44, 157 9 M148 0 C153.92 -0.07, 156.83 3.32, 157 9 M157 9 C157.29 14.38, 157.21 19.24, 157 27 M157 9 C157.23 15.75, 156.87 21.77, 157 27 M157 27 C157.07 32.93, 153.52 36.37, 148 36 M157 27 C156.67 33.49, 154.43 36.46, 148 36 M148 36 C95.29 36.74, 42.77 36.85, 9 36 M148 36 C101.86 35.96, 56.06 35.49, 9 36 M9 36 C3.01 35.76, 0.31 33.28, 0 27 M9 36 C2.37 36.62, 0.09 32.57, 0 27 M0 27 C0.36 22.57, -0.02 17.14, 0 9 M0 27 C0.12 21.93, 0.11 16.14, 0 9 M0 9 C-0.15 2.97, 2.56 0.56, 9 0 M0 9 C0.09 3.08, 2.61 -0.49, 9 0" stroke="#1e1e1e" stroke-width="2" fill="none"></path></g><g transform="translate(72.91944355434845 217.7499999999999) rotate(0 27.191667556762695 12.5)"><text x="27.191667556762695" y="0" font-family="Virgil, Segoe UI Emoji" font-size="20px" fill="#1e1e1e" text-anchor="middle" style="white-space: pre;" direction="ltr" dominant-baseline="text-before-edge">HTMX</text></g><g stroke-linecap="round" transform="translate(22.611111111111143 252.2499999999999) rotate(0 78.5 18.00000000000003)"><path d="M9 0 C48.11 1.43, 84.42 0.98, 148 0 C152.58 -1.18, 156.26 1.63, 157 9 C157.14 13.34, 157.43 17.46, 157 27 C157.02 34.25, 152.59 37.01, 148 36 C103.17 36.95, 58.18 38.48, 9 36 C3.72 37.47, 1.94 33.01, 0 27 C-1.56 18.56, 1.86 14.72, 0 9 C0.06 3.26, 4.51 -0.48, 9 0" stroke="none" stroke-width="0" fill="#ffec99"></path><path d="M9 0 C55.06 0.28, 101.22 -0.57, 148 0 M9 0 C41.36 -0.26, 73.97 0.06, 148 0 M148 0 C153.83 -0.16, 156.99 2.88, 157 9 M148 0 C153.54 -0.45, 156.48 3.62, 157 9 M157 9 C157.18 15.5, 157.04 20.91, 157 27 M157 9 C157.26 13.43, 156.84 17.82, 157 27 M157 27 C157.05 33.22, 153.44 35.62, 148 36 M157 27 C156.83 32.63, 153.66 35.56, 148 36 M148 36 C115.06 35.9, 81.18 35.93, 9 36 M148 36 C105.4 35.7, 62.44 35.68, 9 36 M9 36 C2.55 35.92, 0.11 32.87, 0 27 M9 36 C2.36 36.63, 0.33 32.69, 0 27 M0 27 C-0.42 22.55, 0.26 17.32, 0 9 M0 27 C0.13 22.44, -0.01 17.66, 0 9 M0 9 C0.17 3.47, 2.46 -0.14, 9 0 M0 9 C0.46 3.23, 3.43 -0.18, 9 0" stroke="#1e1e1e" stroke-width="2" fill="none"></path></g><g transform="translate(50.12777752346466 257.7499999999999) rotate(0 50.983333587646484 12.500000000000028)"><text x="50.983333587646484" y="0" font-family="Virgil, Segoe UI Emoji" font-size="20px" fill="#1e1e1e" text-anchor="middle" style="white-space: pre;" direction="ltr" dominant-baseline="text-before-edge">Bootstrap</text></g><g stroke-linecap="round" transform="translate(335.3888888888889 223.11111111111103) rotate(0 78.5 18)"><path d="M9 0 C38.33 2.1, 66.36 0.15, 148 0 C155.06 1.94, 156.99 2.51, 157 9 C156.84 16.26, 155.86 24.35, 157 27 C158.92 31.58, 152.47 36.06, 148 36 C110.08 38.81, 71.54 36.81, 9 36 C4.72 35.74, -0.81 32.45, 0 27 C-0.65 23.26, -1.41 18.99, 0 9 C-0.61 1.11, 1.01 0.7, 9 0" stroke="none" stroke-width="0" fill="#a5d8ff"></path><path d="M9 0 C39.29 -0.25, 68.33 0.09, 148 0 M9 0 C38.37 -0.36, 68.41 -0.17, 148 0 M148 0 C153.54 0.55, 156.44 2.51, 157 9 M148 0 C153.85 0.18, 156.43 3.31, 157 9 M157 9 C157.26 14.73, 157.2 19.77, 157 27 M157 9 C157.07 13.79, 157.24 18.23, 157 27 M157 27 C157.21 32.62, 153.88 36.29, 148 36 M157 27 C157.13 33.55, 154.6 35.68, 148 36 M148 36 C97.36 35.64, 47.46 36.59, 9 36 M148 36 C115.83 35.78, 83.22 35.74, 9 36 M9 36 C2.47 35.71, 0.58 33.17, 0 27 M9 36 C3.56 35.43, -0.67 32.89, 0 27 M0 27 C-0.03 21.74, -0.34 16.99, 0 9 M0 27 C0.23 20.33, -0.15 13.22, 0 9 M0 9 C0.18 2.45, 2.44 0.3, 9 0 M0 9 C-0.34 3.48, 3.37 -0.35, 9 0" stroke="#1e1e1e" stroke-width="2" fill="none"></path></g><g transform="translate(364.8555560641819 228.61111111111103) rotate(0 49.03333282470703 12.5)"><text x="49.03333282470703" y="0" font-family="Virgil, Segoe UI Emoji" font-size="20px" fill="#1e1e1e" text-anchor="middle" style="white-space: pre;" direction="ltr" dominant-baseline="text-before-edge">Java/SQL</text></g><g stroke-linecap="round" transform="translate(336.3888888888889 264.11111111111103) rotate(0 78.5 18)"><path d="M9 0 C61.78 2.13, 119.53 2.35, 148 0 C156.14 -1.18, 158.21 4.72, 157 9 C158.76 15.7, 158.25 18.84, 157 27 C158.86 34.52, 152.31 34.79, 148 36 C110.49 34.06, 76.22 34.63, 9 36 C4.27 36.15, 1.84 30.87, 0 27 C-1.48 20.4, -1.91 12.15, 0 9 C0.34 2.23, 2.26 0, 9 0" stroke="none" stroke-width="0" fill="#ffec99"></path><path d="M9 0 C55.94 -0.25, 103.64 -0.13, 148 0 M9 0 C43.77 -0.08, 78.9 0.07, 148 0 M148 0 C153.73 0.22, 157.29 3.27, 157 9 M148 0 C153.82 -0.65, 157.44 2.59, 157 9 M157 9 C157 13.98, 157.52 19.98, 157 27 M157 9 C157.24 12.55, 157.11 16.57, 157 27 M157 27 C156.66 33.03, 154.38 35.82, 148 36 M157 27 C157.36 32.52, 153.78 35.89, 148 36 M148 36 C95.22 36.93, 42.03 36.72, 9 36 M148 36 C102.62 36.34, 56.88 36.46, 9 36 M9 36 C3.14 35.92, 0.47 32.49, 0 27 M9 36 C2.83 35.64, 0.3 33.65, 0 27 M0 27 C0.18 22.98, -0.2 19.64, 0 9 M0 27 C-0.09 20.05, -0.1 13.27, 0 9 M0 9 C0.44 3.03, 3.18 0.07, 9 0 M0 9 C0.29 2.89, 3.6 -0.1, 9 0" stroke="#1e1e1e" stroke-width="2" fill="none"></path></g><g transform="translate(375.205554538303 269.61111111111103) rotate(0 39.68333435058594 12.5)"><text x="39.68333435058594" y="0" font-family="Virgil, Segoe UI Emoji" font-size="20px" fill="#1e1e1e" text-anchor="middle" style="white-space: pre;" direction="ltr" dominant-baseline="text-before-edge">Quarkus</text></g><g stroke-linecap="round" transform="translate(338.3888888888889 306.11111111111103) rotate(0 78.5 18)"><path d="M9 0 C58.53 -1.65, 109.95 0.49, 148 0 C154.54 0.14, 157.57 1.42, 157 9 C156.34 17.91, 156.48 22.45, 157 27 C159.02 32.65, 155.84 36.4, 148 36 C96.07 34.44, 44.59 35.66, 9 36 C1.39 35.43, -2.02 31.05, 0 27 C-0.88 19.63, -0.11 12.34, 0 9 C0.98 2.98, 2.96 -0.82, 9 0" stroke="none" stroke-width="0" fill="#ffec99"></path><path d="M9 0 C54.87 -0.34, 100.51 0.03, 148 0 M9 0 C39.84 0.18, 70.82 -0.12, 148 0 M148 0 C154.2 -0.4, 157.34 3.04, 157 9 M148 0 C154.57 -0.66, 157.67 3.32, 157 9 M157 9 C156.47 12.66, 157.04 16.39, 157 27 M157 9 C156.93 14.04, 156.87 18.48, 157 27 M157 27 C157.44 33.4, 154.31 36.12, 148 36 M157 27 C157.32 32.68, 153.87 35.46, 148 36 M148 36 C104.06 36.67, 59.57 36.81, 9 36 M148 36 C106.37 35.86, 64.48 35.86, 9 36 M9 36 C2.75 36.45, 0 32.98, 0 27 M9 36 C3.2 35.71, 0.27 33, 0 27 M0 27 C-0.5 23.48, 0.39 20.02, 0 9 M0 27 C0.07 22.75, 0.28 18.18, 0 9 M0 9 C-0.07 2.54, 2.9 0.06, 9 0 M0 9 C0.47 3.14, 3.38 -0.44, 9 0" stroke="#1e1e1e" stroke-width="2" fill="none"></path></g><g transform="translate(386.3722224765354 311.61111111111103) rotate(0 30.516666412353516 12.5)"><text x="30.516666412353516" y="0" font-family="Virgil, Segoe UI Emoji" font-size="20px" fill="#1e1e1e" text-anchor="middle" style="white-space: pre;" direction="ltr" dominant-baseline="text-before-edge">Flyway</text></g><g stroke-linecap="round" transform="translate(339.3888888888889 348.11111111111103) rotate(0 78.5 18)"><path d="M9 0 C50.41 -1.17, 90.66 0.91, 148 0 C153.84 0.38, 157.26 3.27, 157 9 C156 15.57, 156.86 24.41, 157 27 C159.08 31.82, 155.06 36.78, 148 36 C115.67 38.86, 87.38 38.37, 9 36 C2.84 35.27, -0.52 30.93, 0 27 C-0.21 23.58, -0.2 19.15, 0 9 C-1.69 0.87, 2.82 -0.2, 9 0" stroke="none" stroke-width="0" fill="#ffec99"></path><path d="M9 0 C39.93 0.96, 71.48 0.82, 148 0 M9 0 C43.45 0.18, 77.97 0.05, 148 0 M148 0 C153.78 0.57, 157.12 3.34, 157 9 M148 0 C153.48 -0.29, 157.31 2.46, 157 9 M157 9 C156.94 14.46, 157.32 19.12, 157 27 M157 9 C156.89 12.98, 157.29 16.87, 157 27 M157 27 C157.36 33.39, 154.38 36.06, 148 36 M157 27 C157.02 33.44, 154.47 35.53, 148 36 M148 36 C114.7 35.76, 80.66 35.9, 9 36 M148 36 C109.89 35.86, 71.24 35.9, 9 36 M9 36 C2.78 35.76, -0.22 32.47, 0 27 M9 36 C2.69 35.84, 0.67 32.85, 0 27 M0 27 C0.07 22.71, 0.56 19.33, 0 9 M0 27 C0.17 20.79, 0.09 14.46, 0 9 M0 9 C0.22 2.77, 3.49 0.07, 9 0 M0 9 C0.39 2.97, 3.35 -0.03, 9 0" stroke="#1e1e1e" stroke-width="2" fill="none"></path></g><g transform="translate(358.2472224765354 353.61111111111103) rotate(0 59.641666412353516 12.5)"><text x="59.641666412353516" y="0" font-family="Virgil, Segoe UI Emoji" font-size="20px" fill="#1e1e1e" text-anchor="middle" style="white-space: pre;" direction="ltr" dominant-baseline="text-before-edge">Jakarta EE</text></g><g stroke-linecap="round" transform="translate(674.5555555555557 165.25) rotate(0 78.5 18)"><path d="M9 0 C45.77 -0.89, 84.62 2.37, 148 0 C156.01 -1.17, 156.19 0.85, 157 9 C155.26 12.31, 155.5 16.89, 157 27 C155.55 31.49, 151.86 35.1, 148 36 C108.11 35.14, 73.48 36.27, 9 36 C4.88 36.4, 1.89 30.84, 0 27 C-0.36 20.9, 0.62 16.15, 0 9 C1.3 5.06, 1.88 -1.01, 9 0" stroke="none" stroke-width="0" fill="#a5d8ff"></path><path d="M9 0 C41.37 0.44, 72.68 -0.4, 148 0 M9 0 C56.48 -0.16, 103.6 -0.39, 148 0 M148 0 C154.41 -0.35, 156.52 2.42, 157 9 M148 0 C154.35 -0.4, 156.77 3.18, 157 9 M157 9 C156.8 14.69, 157.53 20.65, 157 27 M157 9 C156.89 15.94, 157.04 23.06, 157 27 M157 27 C157.39 33.48, 154.21 35.97, 148 36 M157 27 C156.66 32.45, 154.37 35.52, 148 36 M148 36 C93.35 36.3, 38.21 36.06, 9 36 M148 36 C117.73 35.56, 87 35.41, 9 36 M9 36 C3.11 36.1, -0.44 32.64, 0 27 M9 36 C2.98 35.99, -0.2 32.59, 0 27 M0 27 C0.44 23.29, 0.09 19.57, 0 9 M0 27 C0.21 23.14, 0.17 19.46, 0 9 M0 9 C-0.35 3.52, 3.29 0.12, 9 0 M0 9 C0.55 2.5, 3.06 -0.15, 9 0" stroke="#1e1e1e" stroke-width="2" fill="none"></path></g><g transform="translate(733.9305555555557 170.75) rotate(0 19.125 12.5)"><text x="19.125" y="0" font-family="Virgil, Segoe UI Emoji" font-size="20px" fill="#1e1e1e" text-anchor="middle" style="white-space: pre;" direction="ltr" dominant-baseline="text-before-edge">SQL</text></g><g stroke-linecap="round" transform="translate(676.5555555555557 207.25) rotate(0 78.5 18)"><path d="M9 0 C50.82 -1.81, 87.39 -0.05, 148 0 C153.21 1.21, 157.63 1.06, 157 9 C156.52 12.92, 156.6 19.99, 157 27 C157.03 33.56, 153.82 34.65, 148 36 C101.83 36.45, 53.95 36.12, 9 36 C3.26 34.25, -0.1 34.3, 0 27 C-0.31 21.26, -1.78 12.56, 0 9 C-0.2 4.69, 3.92 0.15, 9 0" stroke="none" stroke-width="0" fill="#ffec99"></path><path d="M9 0 C37.13 -0.64, 64.48 -0.91, 148 0 M9 0 C41.83 0.5, 75.18 0.49, 148 0 M148 0 C154.15 0.55, 156.42 3.07, 157 9 M148 0 C153.38 -0.03, 156.86 2.48, 157 9 M157 9 C156.85 16.1, 156.9 23.34, 157 27 M157 9 C156.82 15.94, 157.14 23.16, 157 27 M157 27 C157.05 32.5, 153.65 36.39, 148 36 M157 27 C156.36 33.08, 154.41 35.34, 148 36 M148 36 C95.46 35.46, 43.98 35.6, 9 36 M148 36 C110.42 36.04, 73.43 35.81, 9 36 M9 36 C2.49 36.14, 0.19 32.65, 0 27 M9 36 C2.46 36.32, -0.6 32.36, 0 27 M0 27 C0.42 23.09, -0.3 18.44, 0 9 M0 27 C0.17 20.65, -0.02 14.63, 0 9 M0 9 C-0.23 2.71, 2.72 -0.13, 9 0 M0 9 C-0.02 3.26, 2.78 0.33, 9 0" stroke="#1e1e1e" stroke-width="2" fill="none"></path></g><g transform="translate(725.9472219679092 212.75) rotate(0 29.108333587646484 12.5)"><text x="29.108333587646484" y="0" font-family="Virgil, Segoe UI Emoji" font-size="20px" fill="#1e1e1e" text-anchor="middle" style="white-space: pre;" direction="ltr" dominant-baseline="text-before-edge">Sakila</text></g><g stroke-linecap="round" transform="translate(345.55555555555554 65.66666666666669) rotate(0 67.77777777777771 17.7777777777778)"><path d="M0 0 C36.77 -0.12, 74.18 -0.28, 135.56 0 M0 0 C47.09 0.01, 94.78 0.04, 135.56 0 M135.56 0 C135.42 14.19, 135.11 28.09, 135.56 35.56 M135.56 0 C135.59 8.24, 135.68 16.6, 135.56 35.56 M135.56 35.56 C104.89 35.75, 73.11 35.03, 0 35.56 M135.56 35.56 C107.53 35.17, 79.43 35.52, 0 35.56 M0 35.56 C0.3 26.02, -0.35 16.82, 0 0 M0 35.56 C0.22 24.34, 0.12 13, 0 0" stroke="#1e1e1e" stroke-width="2" fill="none"></path></g><g transform="translate(369.6416676839192 70.94444444444446) rotate(0 43.69166564941406 12.5)"><text x="43.69166564941406" y="0" font-family="Virgil, Segoe UI Emoji" font-size="20px" fill="#1e1e1e" text-anchor="middle" style="white-space: pre;" direction="ltr" dominant-baseline="text-before-edge">Resource</text></g><g stroke-linecap="round" transform="translate(347.7777777777778 104.55555555555549) rotate(0 67.77777777777771 17.7777777777778)"><path d="M0 0 C40.23 0.11, 79.98 -0.04, 135.56 0 M0 0 C36.28 -0.12, 72.45 -0.04, 135.56 0 M135.56 0 C135.65 13.68, 136.05 26.51, 135.56 35.56 M135.56 0 C135.42 12.17, 135.26 23.76, 135.56 35.56 M135.56 35.56 C100.73 35.63, 66.13 35.99, 0 35.56 M135.56 35.56 C87.19 35.15, 39.47 34.91, 0 35.56 M0 35.56 C0.16 23.49, 0.32 12.38, 0 0 M0 35.56 C-0.26 26.65, -0.21 17.6, 0 0" stroke="#1e1e1e" stroke-width="2" fill="none"></path></g><g transform="translate(381.79722044203015 109.83333333333326) rotate(0 33.75833511352539 12.5)"><text x="33.75833511352539" y="0" font-family="Virgil, Segoe UI Emoji" font-size="20px" fill="#1e1e1e" text-anchor="middle" style="white-space: pre;" direction="ltr" dominant-baseline="text-before-edge">Service</text></g><g stroke-linecap="round" transform="translate(348.8888888888889 143.4444444444444) rotate(0 67.77777777777771 17.7777777777778)"><path d="M0 0 C37.3 0.47, 74.12 0.61, 135.56 0 M0 0 C32.97 -0.17, 66.06 -0.02, 135.56 0 M135.56 0 C135.5 13.56, 135.23 27.74, 135.56 35.56 M135.56 0 C135.51 9.15, 135.82 18.31, 135.56 35.56 M135.56 35.56 C85.98 35.72, 36.5 34.78, 0 35.56 M135.56 35.56 C87.62 35.6, 40.19 35.88, 0 35.56 M0 35.56 C0.5 22.9, -0.1 10.27, 0 0 M0 35.56 C-0.35 24.29, -0.27 12.8, 0 0" stroke="#1e1e1e" stroke-width="2" fill="none"></path></g><g transform="translate(387.07499949137366 148.72222222222217) rotate(0 29.59166717529297 12.5)"><text x="29.59166717529297" y="0" font-family="Virgil, Segoe UI Emoji" font-size="20px" fill="#1e1e1e" text-anchor="middle" style="white-space: pre;" direction="ltr" dominant-baseline="text-before-edge">Entity</text></g><g stroke-linecap="round" transform="translate(340.6111111111112 389.5555555555555) rotate(0 78.5 18)"><path d="M9 0 C61.27 -2.17, 115.4 1.34, 148 0 C152.93 -0.78, 159.09 1.79, 157 9 C158.15 14.62, 154.97 17.31, 157 27 C157.22 33.35, 156.07 37, 148 36 C120.51 35.75, 90.93 36.51, 9 36 C3.21 37.13, 0.44 35.05, 0 27 C-0.51 21.84, 0.38 13.6, 0 9 C-1.3 2.17, 3.06 -1.92, 9 0" stroke="none" stroke-width="0" fill="#ffec99"></path><path d="M9 0 C52.33 -0.94, 95.32 -0.87, 148 0 M9 0 C37.05 -0.56, 65.22 -0.62, 148 0 M148 0 C154.31 -0.31, 156.73 3.14, 157 9 M148 0 C154.23 -0.26, 157.64 3.34, 157 9 M157 9 C156.95 15.47, 156.91 21.99, 157 27 M157 9 C156.94 14.9, 157.18 20.83, 157 27 M157 27 C156.94 33.22, 153.55 36.52, 148 36 M157 27 C156.87 32.91, 153.54 35.47, 148 36 M148 36 C94.8 36.28, 41.78 36.29, 9 36 M148 36 C118.71 36.5, 89.02 36.38, 9 36 M9 36 C2.8 36.02, -0.02 33.12, 0 27 M9 36 C2.97 35.53, 0.23 32.85, 0 27 M0 27 C0.43 22.65, 0.4 17.84, 0 9 M0 27 C0 19.82, -0.03 12.81, 0 9 M0 9 C0.39 2.53, 3.09 -0.45, 9 0 M0 9 C0.35 3.29, 3.66 -0.47, 9 0" stroke="#1e1e1e" stroke-width="2" fill="none"></path></g><g transform="translate(350.57777828640417 395.0555555555555) rotate(0 68.53333282470703 12.5)"><text x="68.53333282470703" y="0" font-family="Virgil, Segoe UI Emoji" font-size="20px" fill="#1e1e1e" text-anchor="middle" style="white-space: pre;" direction="ltr" dominant-baseline="text-before-edge">Quarkus Qute</text></g><g stroke-linecap="round"><g transform="translate(193.6111111111112 120.52777777777777) rotate(0 51.25 -1.25)"><path d="M0 0 C22.06 -0.74, 44.68 -1.08, 102.5 -2.5 M0 0 C23.76 -0.46, 47.9 -1.12, 102.5 -2.5" stroke="#1e1e1e" stroke-width="2" fill="none"></path></g><g transform="translate(193.6111111111112 120.52777777777777) rotate(0 51.25 -1.25)"><path d="M74.58 8.47 C80.49 5.95, 86.95 3.77, 102.5 -2.5 M74.58 8.47 C80.95 6.05, 87.71 3.42, 102.5 -2.5" stroke="#1e1e1e" stroke-width="2" fill="none"></path></g><g transform="translate(193.6111111111112 120.52777777777777) rotate(0 51.25 -1.25)"><path d="M74.06 -12.04 C80.1 -10.12, 86.68 -7.86, 102.5 -2.5 M74.06 -12.04 C80.54 -9.68, 87.43 -7.53, 102.5 -2.5" stroke="#1e1e1e" stroke-width="2" fill="none"></path></g></g><mask></mask><g stroke-linecap="round"><g transform="translate(543.6111111111112 109.27777777777777) rotate(0 56.25 0.625)"><path d="M0 0 C25.51 0.19, 50.74 0.49, 112.5 1.25 M0 0 C26.89 0.46, 53.92 0.7, 112.5 1.25" stroke="#1e1e1e" stroke-width="2" fill="none"></path></g><g transform="translate(543.6111111111112 109.27777777777777) rotate(0 56.25 0.625)"><path d="M84.21 11.24 C90.7 8.91, 96.91 6.67, 112.5 1.25 M84.21 11.24 C90.94 8.96, 97.81 6.5, 112.5 1.25" stroke="#1e1e1e" stroke-width="2" fill="none"></path></g><g transform="translate(543.6111111111112 109.27777777777777) rotate(0 56.25 0.625)"><path d="M84.41 -9.28 C90.86 -6.98, 97.02 -4.58, 112.5 1.25 M84.41 -9.28 C91.07 -6.65, 97.89 -4.19, 112.5 1.25" stroke="#1e1e1e" stroke-width="2" fill="none"></path></g></g><mask></mask></svg>